<svg xmlns="http://www.w3.org/2000/svg" version="1.1" xmlns:xlink="http://www.w3.org/1999/xlink" xmlns:svgjs="http://svgjs.com/svgjs" width="512" height="512" x="0" y="0" viewBox="0 0 32 32" style="enable-background:new 0 0 512 512" xml:space="preserve" class=""><g transform="matrix(0.8,0,0,0.8,3.2000003337860115,3.2000003337860115)"><linearGradient id="linear-gradient" gradientUnits="userSpaceOnUse" x1="6.268" x2="26.536" y1="32.089" y2="9.795"><stop stop-opacity="1" stop-color="#0056e0" offset="0"></stop><stop stop-opacity="1" stop-color="#f2551c" offset="0.01"></stop><stop stop-opacity="1" stop-color="#ffd432" offset="1"></stop></linearGradient><path d="m16 2.5001a6.5 6.5 0 1 1 -6.4995 6.5 6.50264 6.50264 0 0 1 6.4995-6.5zm13.499 23.89565a9.39769 9.39769 0 0 0 -9.39515-9.39585h-8.20774a9.39763 9.39763 0 0 0 -9.39511 9.39585v1.60434a1.49885 1.49885 0 0 0 1.49991 1.49981h23.99818a1.4989 1.4989 0 0 0 1.49991-1.49981z" fill="url(#linear-gradient)" fill-rule="evenodd" data-original="url(#linear-gradient)" class=""></path></g></svg>