<svg xmlns="http://www.w3.org/2000/svg" version="1.1" xmlns:xlink="http://www.w3.org/1999/xlink" xmlns:svgjs="http://svgjs.com/svgjs" width="512" height="512" x="0" y="0" viewBox="0 0 53 53" style="enable-background:new 0 0 512 512" xml:space="preserve" class=""><g><linearGradient id="lg1"><stop offset=".3063063" stop-color="#fff"></stop><stop offset="1" stop-color="#fff" stop-opacity="0"></stop></linearGradient><radialGradient id="SVGID_1_" cx="38.207" cy="21.388" gradientUnits="userSpaceOnUse" r="4.807" xlink:href="#lg1"></radialGradient><radialGradient id="SVGID_2_" cx="32.625" cy="34.778" gradientUnits="userSpaceOnUse" r="11.299" xlink:href="#lg1"></radialGradient><radialGradient id="SVGID_3_" cx="16.037" cy="24.436" gradientUnits="userSpaceOnUse" r="7.172"><stop offset=".3063062" stop-color="#fff" stop-opacity=".999"></stop><stop offset="1" stop-color="#fff" stop-opacity="0"></stop></radialGradient><g id="_x34_4"><g><path d="m8.8644638 11.4574461 9.5639648 8.2840586h.0075073 16.1264648.0175781l9.5493164-8.2888803c-.1571045-.1991577-.3328247-.3833618-.5241699-.5495605l-7.9000243-6.8699952c-.7299805-.6300046-1.6599731-.9799802-2.6300049-.9799802h-13.1499633c-.9686279 0-1.8972168.3493042-2.6265869.9775388l-.605835.5264282-7.3076172 6.3560181c-.1897583.1647949-.364502.3471069-.5206299.5443725z" fill="#78ccff" data-original="#78ccff" class=""></path><path d="m34.5624008 19.7415047h-16.1264648l-.0202637.0065918-3.4489136 11.5632324h23.0648194l-3.4497071-11.5634766z" fill="#3da6e8" data-original="#3da6e8" class=""></path><path d="m44.1292953 11.4526243-9.5493164 8.2888803.0018921.0063477.0007935.0002441 3.4489136 11.5632324 11.15979-7.6446533c.31073-.9805298.2467651-2.0587769-.2348633-3.0067139l-1.7893066-3.4738159-2.6320801-5.1030283c-.1141968-.2233886-.2509766-.434204-.4058228-.6304931z" fill="#0079dd" data-original="#0079dd"></path><path d="m3.8131938 23.6793709 11.1508789 7.6385498 3.4515991-11.5698242-9.5512695-8.2905893c-.15625.1973267-.2935181.4096069-.4085693.6344604l-4.4067388 8.5553598c-.4895015.9550171-.5527339 2.0438843-.2359004 3.0320435z" fill="#55b4fb" data-original="#55b4fb"></path><path d="m49.1913681 23.6666756-11.15979 7.6446533-10.8094483 18.5023193c.2645264-.1016846.5082397-.2619629.7177734-.4801636l20.5375977-24.3354492c.3277588-.4019165.5629273-.8551025.7138672-1.3313598z" fill="#005f93" data-original="#005f93"></path><path d="m14.9640732 31.3179207-11.1508794-7.6385498c.1566772.4887085.3989258.9547119.7419434 1.3637085l15.6765137 18.5784302 4.75 5.6278076c.2230225.2623901.4983521.4443359.7943115.5603027z" fill="#0079dd" data-original="#0079dd"></path><path d="m25.7759628 49.8096199c.4624634.1812134.9746704.1826782 1.4385986.0065308l10.8170166-18.5048218-23.0674438.0065918z" fill="#006db7" data-original="#006db7"></path></g><g><g><path d="m37.5100327 5.6027098-1.8049317-1.5696411c-.7299805-.6300046-1.6599731-.9799802-2.6300049-.9799802h-13.1499633c-.9686279 0-1.8972168.3493042-2.6265869.9775388l-.605835.5264282-7.3076172 6.3560181c-.1897583.1647949-.364502.3471069-.5206299.5443726l6.7310543 5.8302965c13.5965576-.4678346 20.6434574-7.1302234 21.9145146-11.6850329z" fill="#99ddff" data-original="#99ddff"></path></g></g><path d="m39.047245 21.8273964 1.5992127 2.0000229-2.0000305-1.6005554-.4396782 3.9678821-.4396897-3.9678821-2.000019 1.6005554 1.6005554-2.0000229-3.9678726-.4396782 3.9678726-.4410305-1.6005554-1.9986801 2.000019 1.5992145.4396897-3.9665393.4396782 3.9678821 2.0000305-1.6005573-1.5992127 1.9986801 3.9665299.4410305z" fill="url(#SVGID_1_)" data-original="url(#SVGID_1_)"></path><g opacity=".3"><path d="m38.0351181 31.3130989-10.8200073 18.5 6.2846489-18.5-.5046807-11.5700073h1.5900269z" fill="url(#SVGID_2_)" data-original="url(#SVGID_2_)"></path></g><path d="m15.6446362 17.2740288c-3.9552116.2169456-6.98561 3.5990372-6.7686653 7.5543518.2168427 3.9552116 3.5990362 6.9856091 7.5542488 6.7686653 3.9552116-.2168427 6.9857121-3.5991383 6.7687664-7.5543518-.2169438-3.9552116-3.5991383-6.9857121-7.5543499-6.7686653z" fill="url(#SVGID_3_)" opacity=".4" data-original="url(#SVGID_3_)"></path><path d="m22.8419628 12.6818066-3.8897476.5269832-.5365143 3.8993378-.5365734-3.8993378-3.8897467-.5269832 3.8993369-.5269251.5269832-3.9088679.5269241 3.9088679z" fill="#ffffff" data-original="#ffffff"></path><g><path d="m18.415123 19.7430916-3.4500122 11.5700073 10.8099975 18.5-11.9699707-19.289978 2.9899903-12.1800537-7.9299927-6.8899546 10.5699463 5.8699961 14.6900024 1.2699585 10-7.1399546-9.5499878 8.289979z" fill="#99ddff" data-original="#99ddff"></path></g></g></g></svg>
