<svg xmlns="http://www.w3.org/2000/svg" version="1.1" xmlns:xlink="http://www.w3.org/1999/xlink" xmlns:svgjs="http://svgjs.com/svgjs" width="512" height="512" x="0" y="0" viewBox="0 0 195 195" style="enable-background:new 0 0 512 512" xml:space="preserve" class=""><g><linearGradient id="lg1"><stop stop-opacity="1" stop-color="#f2551c" offset="0"></stop><stop stop-opacity="1" stop-color="#ffd432" offset="1"></stop></linearGradient><linearGradient id="SVGID_1_" gradientUnits="userSpaceOnUse" x1="41.989" x2="110.034" xlink:href="#lg1" y1="106.901" y2="174.945"></linearGradient><linearGradient id="SVGID_2_" gradientUnits="userSpaceOnUse" x1="56.739" x2="95.284" xlink:href="#lg1" y1="41.647" y2="80.193"></linearGradient><linearGradient id="SVGID_3_" gradientUnits="userSpaceOnUse" x1="130.073" x2="164.508" xlink:href="#lg1" y1="63.989" y2="98.424"></linearGradient><g id="icon_2_"><path d="m118.78 161.34h-85.54c-6.49 0-11.74-5.26-11.74-11.74v-2.04c0-26.88 21.79-48.66 48.66-48.66h11.7c26.88 0 48.66 21.79 48.66 48.66v2.04c0 6.48-5.26 11.74-11.74 11.74z" fill="url(#SVGID_1_)" data-original="url(#SVGID_1_)"></path><circle cx="76.01" cy="60.92" fill="url(#SVGID_2_)" r="27.26" data-original="url(#SVGID_2_)"></circle><path d="m155.52 72.98v-17.98h-16.45v17.98h-17.99v16.45h17.99v17.99h16.45v-17.99h17.98v-16.45z" fill="url(#SVGID_3_)" data-original="url(#SVGID_3_)"></path></g></g></svg>