<svg xmlns="http://www.w3.org/2000/svg" version="1.1" xmlns:xlink="http://www.w3.org/1999/xlink" xmlns:svgjs="http://svgjs.com/svgjs" width="512" height="512" x="0" y="0" viewBox="0 0 28 28" style="enable-background:new 0 0 512 512" xml:space="preserve" class=""><g transform="matrix(0.75,0,0,0.75,3.4999999999999964,3.499999999999991)"><linearGradient id="linearGradient449354" gradientUnits="userSpaceOnUse" x1="282.05" x2="310" y1="42.05" y2="70"><stop stop-opacity="1" stop-color="#f2551c" offset="0"></stop><stop stop-opacity="1" stop-color="#ffd432" offset="1"></stop></linearGradient><g id="layer2" transform="translate(-82 -42)"><g id="g3202" fill="url(#linearGradient449354)" transform="translate(-200)"><path id="path151953" d="m290 42a1 1 0 0 0 -1 1v2h-2c-2.7527 0-5 2.247318-5 5v2h28v-2c0-2.752682-2.2473-5-5-5h-1v4a1 1 0 0 1 -1 1 1 1 0 0 1 -.50391-.138672 1 1 0 0 0 .50391-.861328v-6a1 1 0 0 0 -1-1 1 1 0 0 0 -1 1v2h-9v4a1 1 0 0 1 -1 1 1 1 0 0 1 -.50391-.138672 1 1 0 0 0 .50391-.861328v-6a1 1 0 0 0 -1-1zm-8 12v11c0 2.752682 2.2473 5 5 5h18c2.7527 0 5-2.247318 5-5v-11zm19.08008 2.572266a1 1 0 0 1 .57031.236328 1 1 0 0 1 .10938 1.410156l-6 7a1.0001 1.0001 0 0 1 -1.54102-.02539l-4-5a1 1 0 0 1 .15625-1.40625 1 1 0 0 1 1.40625.15625l3.24609 4.05664 5.21289-6.082031a1 1 0 0 1 .83985-.345703z" fill="" stroke-linecap="round"></path></g></g></g></svg>