<svg xmlns="http://www.w3.org/2000/svg" version="1.1" xmlns:xlink="http://www.w3.org/1999/xlink" xmlns:svgjs="http://svgjs.com/svgjs" width="512" height="512" x="0" y="0" viewBox="0 0 512 512" style="enable-background:new 0 0 512 512" xml:space="preserve" class=""><g transform="matrix(-1,1.2246467991473532e-16,-1.2246467991473532e-16,-1,512.0000610351562,511.99940490722656)"><linearGradient id="GradientFill_1" gradientUnits="userSpaceOnUse" x1="256" x2="256" y1="62.183" y2="449.817"><stop offset="0" stop-color="#fcaf2b"></stop><stop offset="1" stop-color="#e03536"></stop></linearGradient><path d="m512 256a24 24 0 0 1 -7.939 17.834l-188.561 169.816a24 24 0 1 1 -32.121-35.667l142.107-127.983h-401.486a24 24 0 0 1 0-48h401.489l-142.11-127.983a24 24 0 1 1 32.121-35.667l188.561 169.816a24 24 0 0 1 7.939 17.834z" fill="url(#GradientFill_1)" data-original="url(#GradientFill_1)"></path></g></svg>
