<svg xmlns="http://www.w3.org/2000/svg" version="1.1" xmlns:xlink="http://www.w3.org/1999/xlink" xmlns:svgjs="http://svgjs.com/svgjs" width="512" height="512" x="0" y="0" viewBox="0 0 32 32" style="enable-background:new 0 0 512 512" xml:space="preserve" class=""><g><linearGradient id="linear-gradient" gradientUnits="userSpaceOnUse" x1="1.998" x2="30.002" y1="16" y2="16"><stop offset="0" stop-color="#ffde00"></stop><stop offset="1" stop-color="#fd5900"></stop></linearGradient><path d="m25.12 19.56a1.02961 1.02961 0 0 0 -.29.91l.93 5.46a3.02338 3.02338 0 0 1 -2.97 3.53 2.94566 2.94566 0 0 1 -1.41-.35l-4.9-2.58a1.08036 1.08036 0 0 0 -.96 0l-4.9 2.58a3.0181 3.0181 0 0 1 -4.38-3.18l.93-5.46a1.02961 1.02961 0 0 0 -.29-.91l-3.96-3.86a3.02293 3.02293 0 0 1 1.67-5.16l5.48-.79a1.03871 1.03871 0 0 0 .77-.56l2.45-4.97a3.02578 3.02578 0 0 1 5.42 0l2.45 4.97a1.03871 1.03871 0 0 0 .77.56l5.48.79a3.02921 3.02921 0 0 1 1.68 5.16z" fill="url(#linear-gradient)" data-original="url(#linear-gradient)" class=""></path></g></svg>
