<svg xmlns="http://www.w3.org/2000/svg" version="1.1" xmlns:xlink="http://www.w3.org/1999/xlink" xmlns:svgjs="http://svgjs.com/svgjs" width="512" height="512" x="0" y="0" viewBox="0 0 32 32" style="enable-background:new 0 0 512 512" xml:space="preserve" class=""><g><linearGradient id="linearGradient854" gradientUnits="userSpaceOnUse" x1="3.189" x2="23.842" y1="25.665" y2="5.923"><stop id="stop1268-5" offset="0" stop-color="#fd5900"></stop><stop id="stop1270-2" offset="1" stop-color="#ffde00"></stop></linearGradient><path id="path2" d="m4.8 1.328c-1.031.004-1.946.485-2.627 1.167-.683.682-1.166 1.596-1.166 2.628v15.413c0 .354-.039 2.703.059 4.923.048 1.11.12 2.194.266 3.063.164 1.244.717 1.974 1.588 2.134.807.148 1.498-.769 2.074-1.321 1.356-1.478 2.472-2.932 3.729-4.443.246-.286.461-.522.598-.649l17.872.096c2.094.012 3.81-1.713 3.81-3.801v-15.416c0-2.088-1.715-3.794-3.803-3.794zm22.397 1.993c1.015 0 1.802.786 1.802 1.801v15.414c0 1.015-.787 1.807-1.794 1.801l-18.138-.096c-.49-.008-.778.301-1.114.538-1.7 1.861-3.192 3.81-4.642 5.397-.118-.709-.206-1.741-.252-2.805-.092-2.139-.059-4.367-.059-4.835v-15.414c0-.363.215-.842.582-1.21.366-.368.852-.587 1.221-.591zm-2.2 6.002c.553 0 1-.447 1.002-1 0-.552-.447-1-1.001-1.001h-18.006c-.553 0-1.001.447-1.001 1s.447 1 1 1.001zm-6.002 8.002c.553 0 1.001-.447 1.001-1s-.446-1-1-1.001h-12.004c-.553 0-1.001.447-1.001 1s.447 1 1 1.001zm-12.003-6.002c-.553 0-1.001.447-1.001 1s.447 1 1 1.001h18.006c.553 0 1-.447 1.002-1 0-.552-.447-1-1.001-1.001z" fill="url(#linearGradient854)" data-original="url(#linearGradient854)"></path></g></svg>
