<svg xmlns="http://www.w3.org/2000/svg" version="1.1" xmlns:xlink="http://www.w3.org/1999/xlink" xmlns:svgjs="http://svgjs.com/svgjs" width="512" height="512" x="0" y="0" viewBox="0 0 48 48" style="enable-background:new 0 0 512 512" xml:space="preserve" class=""><g><linearGradient id="linearGradient1819" gradientUnits="userSpaceOnUse" x1="2" x2="46" xlink:href="#linearGradient1817" y1="-118" y2="-74"></linearGradient><linearGradient id="linearGradient1817"><stop id="stop1813" offset="0" stop-color="#ff0"></stop><stop id="stop1815" offset="1" stop-color="#f00"></stop></linearGradient><linearGradient id="linearGradient1843" gradientUnits="userSpaceOnUse" x1="122" x2="166" xlink:href="#linearGradient1817" y1="-118" y2="-74"></linearGradient><linearGradient id="linearGradient1851" gradientUnits="userSpaceOnUse" x1="2" x2="46" xlink:href="#linearGradient1817" y1="-118" y2="-75"></linearGradient><linearGradient id="linearGradient1863" gradientUnits="userSpaceOnUse" x1="3.525" x2="47.525" xlink:href="#linearGradient1817" y1="-118" y2="-74"></linearGradient><linearGradient id="linearGradient1917" gradientUnits="userSpaceOnUse" x1="3.593" x2="44.407" xlink:href="#linearGradient1817" y1="-106.357" y2="-65.5"></linearGradient><linearGradient id="linearGradient2079" gradientUnits="userSpaceOnUse" x1="-91.966" x2="-29.74" xlink:href="#linearGradient1817" y1="-56.243" y2="-56.243"></linearGradient><linearGradient id="linearGradient2087" gradientUnits="userSpaceOnUse" x1="182" x2="226" xlink:href="#linearGradient1817" y1="122" y2="166"></linearGradient><linearGradient id="linearGradient2027" gradientUnits="userSpaceOnUse" x1="2.024" x2="44.976" xlink:href="#linearGradient1817" y1="-115.615" y2="-72.664"></linearGradient><linearGradient id="linearGradient2045" gradientUnits="userSpaceOnUse" x1="-178" x2="-134" xlink:href="#linearGradient1817" y1="-118" y2="-74"></linearGradient><linearGradient id="linearGradient1973" gradientUnits="userSpaceOnUse" x1="2" x2="46" xlink:href="#linearGradient1817" y1="-238" y2="-194"></linearGradient><linearGradient id="linearGradient1953" gradientUnits="userSpaceOnUse" x1="1.987" x2="44.078" xlink:href="#linearGradient1817" y1="-112.75" y2="-70.66"></linearGradient><g id="g2797" stroke-width=".957" transform="matrix(1.045 0 0 1.045 -.077 119.86)"><path id="path5021-7" d="m24.06027-112.46988-21.213601 21.213604c-1.1465178 1.146517-1.1465178 3.034925 0 4.181434l15.556145 15.556144c1.146508 1.146517 3.034916 1.146517 4.181434 0l21.213601-21.213601c.210081-.209785.31087-.505224.272787-.799669l-2.122481-16.262392c-.06706-.48485-.319489-.77256-.825824-.82582l-16.262391-2.12248c-.333437 0-.618555.0916-.79967.27278zm9.160672 6.61968c2.173842 0 3.957233 1.78339 3.957233 3.95723 0 2.173841-1.783391 3.955367-3.957233 3.955367-2.173842-.00001-3.955367-1.781526-3.955367-3.955367.000009-2.17384 1.781525-3.95723 3.955367-3.95723zm0 1.91135c-1.13986 0-2.042145.90601-2.042145 2.04588 0 1.13986.902285 2.042144 2.042145 2.042144s2.045876-.902284 2.045876-2.042144c0-1.13987-.906016-2.04588-2.045876-2.04588zm-13.465442 5.610748 6.363704 6.365579c.372236.373346.372236.977494 0 1.35084-.373347.372237-.977494.372237-1.350841 0l-6.365569-6.363713c-.37348-.373566-.37348-.979139 0-1.352706.361073-.341586.908686-.44402 1.352706 0zm-3.534965 3.53685 9.898678 9.898678c.37349.373567.37349.979149 0 1.352716-.373346.372236-.977494.372236-1.35084 0l-9.900554-9.900553c-.372236-.373346-.372236-.977494 0-1.350841.365225-.365224.91278-.439936 1.352716 0zm-3.534985 3.534976 6.363713 6.363702c.37349.373567.37349.979149 0 1.352716-.373777.374733-.980804.374733-1.354581 0l-6.361838-6.365578c-.372237-.373346-.372237-.977494 0-1.35084.401117-.401117.887888-.464818 1.352706 0z" fill="url(#linearGradient1953)" font-variant-ligatures="normal" font-variant-position="normal" font-variant-caps="normal" font-variant-numeric="normal" font-variant-alternates="normal" font-variant-east-asian="normal" font-feature-settings="normal" font-variation-settings="normal" text-indent="0" text-align="start" text-decoration-line="none" text-decoration-style="solid" text-decoration-color="#000000" text-transform="none" text-orientation="mixed" white-space="normal" shape-padding="0" shape-margin="0" inline-size="0" isolation="auto" mix-blend-mode="normal" solid-color="#000000" solid-opacity="1" vector-effect="none" data-original="url(#linearGradient1953)"></path></g></g></svg>
