<svg xmlns="http://www.w3.org/2000/svg" version="1.1" xmlns:xlink="http://www.w3.org/1999/xlink" xmlns:svgjs="http://svgjs.com/svgjs" width="512" height="512" x="0" y="0" viewBox="0 0 512 512" style="enable-background:new 0 0 512 512" xml:space="preserve" class=""><g><linearGradient id="SVGID_1_" gradientUnits="userSpaceOnUse" x1="39.47" x2="438.76" y1="489.757" y2="90.467"><stop stop-opacity="1" stop-color="#7a34f4" offset="0"></stop><stop stop-opacity="1" stop-color="#fee72e" offset="0"></stop><stop stop-opacity="1" stop-color="#f26522" offset="1"></stop><stop stop-opacity="1" stop-color="#54a2f8" offset="1"></stop><stop stop-opacity="1" stop-color="#4abef9" offset="1"></stop></linearGradient><g id="_x39_1_Evaluate"><path d="m151.566 148.676c2.059 2.059 2.059 5.394 0 7.453l-17.33 17.335c-2.058 2.058-5.394 2.059-7.453 0l-6.506-6.511c-2.059-2.059-2.059-5.399 0-7.453 2.059-2.059 5.394-2.059 7.453 0l2.779 2.779 13.603-13.603c2.06-2.059 5.395-2.059 7.454 0zm40.789-3.14c0 2.913 2.357 5.27 5.27 5.27h129.688c2.913 0 5.271-2.357 5.271-5.27s-2.357-5.27-5.271-5.27h-129.687c-2.913-.001-5.271 2.357-5.271 5.27zm5.271 36.337h91.168c2.913 0 5.271-2.357 5.271-5.27s-2.357-5.27-5.271-5.27h-91.168c-2.913 0-5.27 2.357-5.27 5.27s2.357 5.27 5.27 5.27zm-53.513 71.893-13.603 13.603-2.779-2.779c-2.059-2.059-5.394-2.059-7.453 0s-2.059 5.394 0 7.453l6.506 6.506c2.059 2.059 5.394 2.059 7.453 0l17.33-17.33c2.059-2.059 2.059-5.394 0-7.453-2.06-2.059-5.395-2.059-7.454 0zm183.201-8.415h-129.688c-2.913 0-5.27 2.357-5.27 5.27s2.357 5.27 5.27 5.27h129.688c2.913 0 5.271-2.357 5.271-5.27s-2.358-5.27-5.271-5.27zm-129.688 41.613h91.168c2.913 0 5.271-2.357 5.271-5.27s-2.357-5.27-5.271-5.27h-91.168c-2.913 0-5.27 2.357-5.27 5.27s2.357 5.27 5.27 5.27zm-53.513 71.893-13.603 13.603-2.779-2.785c-2.059-2.059-5.394-2.059-7.453 0-2.059 2.054-2.059 5.394 0 7.453l6.506 6.511c2.059 2.059 5.395 2.058 7.453 0l17.33-17.33c2.059-2.059 2.059-5.394 0-7.453-2.06-2.058-5.395-2.058-7.454.001zm183.201-8.415h-129.688c-2.913 0-5.27 2.357-5.27 5.271s2.357 5.27 5.27 5.27h129.688c2.913 0 5.271-2.357 5.271-5.27s-2.358-5.271-5.271-5.271zm-38.52 31.072h-91.168c-2.913 0-5.27 2.357-5.27 5.271s2.357 5.27 5.27 5.27h91.168c2.913 0 5.271-2.357 5.271-5.27s-2.358-5.271-5.271-5.271zm186.948-108.869v222.241c0 7.772-6.326 14.098-14.098 14.098h-29.508c-7.772 0-14.098-6.326-14.098-14.098 0-53.937 0-191.059 0-222.241 0-.999.391-2.298 1.143-3.258l17.577-22.338c1.313-1.666 2.988-2.92 4.854-3.759v-.601c0-2.913 2.357-5.27 5.27-5.27s5.271 2.357 5.271 5.27v.598c1.872.839 3.552 2.092 4.864 3.761l17.582 22.338c.741.948 1.143 2.237 1.143 3.259zm-41.562-5.27h25.421l-10.87-13.809c-.944-1.198-2.745-1.192-3.69.005zm31.021 214.417h-36.621v13.094c0 1.961 1.596 3.557 3.557 3.557h29.508c1.961 0 3.557-1.596 3.557-3.557v-13.094zm0-203.876h-36.621v193.335h36.621zm-71.183-216.373v409.199c0 21.072-17.119 38.211-38.16 38.211h-281.389c-21.072 0-38.211-17.139-38.211-38.211v-409.199c0-21.072 17.139-38.211 38.211-38.211h84.805c1.417-11.416 11.071-20.315 22.864-20.315h65.963c11.793 0 21.447 8.899 22.864 20.315h84.893c21.042 0 38.16 17.139 38.16 38.211zm-247.641-12.224h-7.113c-7.623 0-13.825 6.202-13.825 13.83v3.495c0 4.323 3.515 7.839 7.834 7.839h163.694c4.323 0 7.839-3.515 7.839-7.839 0 .531 0-2.964 0-3.495 0-7.628-6.202-13.83-13.83-13.83h-7.113c-13.227 0-23.151-11.102-23.151-23.151 0-6.954-5.657-12.61-12.61-12.61h-65.963c-6.954 0-12.61 5.657-12.61 12.61-.001 12.021-9.889 23.151-23.152 23.151zm150.59 35.704h-163.694c-9.277 0-16.892-6.939-18.122-15.889h-33.147v394.072h266.268v-394.072h-33.177c-1.23 8.95-8.846 15.889-18.128 15.889zm86.51-23.48c0-15.256-12.389-27.67-27.619-27.67h-81.905c2.31 2.962 5.87 4.905 9.909 4.905h7.113c11.879 0 21.768 8.552 23.91 19.816h38.656c2.913 0 5.271 2.357 5.271 5.27v404.613c0 2.913-2.357 5.27-5.271 5.27h-276.807c-2.913 0-5.27-2.357-5.27-5.27v-404.613c0-2.913 2.357-5.27 5.27-5.27h38.625c2.142-11.264 12.031-19.816 23.905-19.816h7.113c4.039 0 7.599-1.943 9.909-4.905h-81.817c-15.256 0-27.67 12.414-27.67 27.67v409.199c0 15.256 12.414 27.67 27.67 27.67h281.39c15.23 0 27.619-12.414 27.619-27.67v-409.199zm-209.347 204.602c0 21.077-17.145 38.221-38.221 38.221-21.061 0-38.196-17.145-38.196-38.221 0-21.061 17.134-38.196 38.196-38.196 21.076 0 38.221 17.134 38.221 38.196zm-10.541 0c0-15.25-12.42-27.655-27.68-27.655-15.25 0-27.655 12.404-27.655 27.655 0 15.261 12.404 27.68 27.655 27.68 15.26 0 27.68-12.42 27.68-27.68zm10.541-105.091c0 21.077-17.145 38.221-38.221 38.221-21.061 0-38.196-17.145-38.196-38.221 0-21.056 17.134-38.19 38.196-38.19 21.076 0 38.221 17.134 38.221 38.19zm-10.541 0c0-15.245-12.42-27.649-27.68-27.649-15.25 0-27.655 12.404-27.655 27.649 0 15.261 12.404 27.68 27.655 27.68 15.26 0 27.68-12.419 27.68-27.68zm10.541 210.181c0 21.077-17.145 38.221-38.221 38.221-21.061 0-38.196-17.145-38.196-38.221 0-21.061 17.134-38.196 38.196-38.196 21.076.001 38.221 17.135 38.221 38.196zm-10.541 0c0-15.25-12.42-27.655-27.68-27.655-15.25 0-27.655 12.404-27.655 27.655 0 15.261 12.404 27.68 27.655 27.68 15.26.001 27.68-12.419 27.68-27.68z" fill="url(#SVGID_1_)" data-original="url(#SVGID_1_)"></path></g></g></svg>
